<svg xmlns="http://www.w3.org/2000/svg" id="airdrop" x="0" y="0" version="1.1" viewBox="0 0 29 29" xml:space="preserve"><path fill="none" stroke="#000" stroke-miterlimit="10" stroke-width="2" d="M9.197 19.303A7.503 7.503 0 0 1 7 14c0-4.114 3.386-7.5 7.5-7.5S22 9.886 22 14a7.503 7.503 0 0 1-2.197 5.303"></path><path fill="none" stroke="#000" stroke-miterlimit="10" stroke-width="2" d="M12.025 16.475A3.502 3.502 0 0 1 11 14c0-1.92 1.58-3.5 3.5-3.5S18 12.08 18 14c0 .928-.369 1.819-1.025 2.475"></path><path fill="none" stroke="#000" stroke-miterlimit="10" stroke-width="2" d="M6.368 22.132A11.504 11.504 0 0 1 3 14C3 7.691 8.191 2.5 14.5 2.5S26 7.691 26 14c0 3.049-1.212 5.976-3.368 8.132"></path><path d="M14.5 17.308l9.192 9.192H5.308z"></path></svg>